# xmcd CD database file
#
# Track frame offsets:
#	150
#	33109
#	73721
#	116861
#	158742
#	198644
#	277701
#
# Disc length: 3910 seconds
#
# Revision: 0
# Processed by: cddbd v1.5.2PL0 Copyright (c) Steve Scherf et al.
# Submitted via: CDex 1.70beta2
#
DISCID=5b0f4407
DTITLE=Tate,Buddy - Tate A Tate
DYEAR=1999
DGENRE=Jazz
TTITLE0=Stompin´ At The Savoy
TTITLE1=Body And Soul
TTITLE2=Buddy´s Blues
TTITLE3=Broadway
TTITLE4=Just You, Just Me
TTITLE5=In A Mellow Tone
TTITLE6=I Surrender, Dear
EXTD=YEAR: 1999
EXTT0=
EXTT1=
EXTT2=
EXTT3=
EXTT4=
EXTT5=
EXTT6=
PLAYORDER=
